# xmcd
#
# Track frame offsets: 
#        150
#        30174
#        60232
#        88536
#        117616
#        146314
#        174015
#        202621
#        232553
#        258255
#        286461
#        313217
#
# Disc length: 4552 seconds
#
# Revision: 6
# Processed by: cddbd v1.5.2PL0 Copyright (c) Steve Scherf et al.
# Submitted via: ExactAudioCopyFreeDBPlugin 1.0
#
DISCID=8a11c60c
DTITLE=Various Artist - Hed Kandi Disco Heaven
DYEAR=2006
DGENRE=House
TTITLE0=Solu Music feat Kimblee - Fade (Grant Nelson Big Room Vocal Mi
TTITLE0=x-Wez Clarke Re-Edit)
TTITLE1=Dennis Christopher - Soul Shakin (Vocal Mix)
TTITLE2=Flanders - By My Side (Callea and Rispoli Club Mix)
TTITLE3=Jamie Lewis presents Michelle Weeks - Be Thankful (Jazz N Groo
TTITLE3=ve Old School Mix)
TTITLE4=Candi Williams feat Simpson Horns - I Got The Music In Me
TTITLE5=Gav McCall - Im Alright
TTITLE6=Haji and Emanuel - Take Me Away (StoneBridge Remix)
TTITLE7=M - Feel
TTITLE8=Hott 22 - Hott 22
TTITLE9=BeatFreakz - Somebodys Watching Me (BeatFreakz Club Mix)
TTITLE10=Mister T and Demon Ritchie feat Prince Charles - Just U&I (Enzo
TTITLE10=Mori and Stephan Clark Remix)
TTITLE11=Freemasons feat Amanda Wilson - Watchin (Motivo Hi-Lectro Rem
TTITLE11=ix)
EXTD=YEAR: 2006
EXTT0=
EXTT1=
EXTT2=
EXTT3=
EXTT4=
EXTT5=
EXTT6=
EXTT7=
EXTT8=
EXTT9=
EXTT10=
EXTT11=
PLAYORDER=
